<?xml version="1.0" standalone="no"?>
<!DOCTYPE svg PUBLIC "-//W3C//DTD SVG 20010904//EN"
 "http://www.w3.org/TR/2001/REC-SVG-20010904/DTD/svg10.dtd">
<svg version="1.0" xmlns="http://www.w3.org/2000/svg"
 width="300.000000pt" height="300.000000pt" viewBox="0 0 300.000000 300.000000"
 preserveAspectRatio="xMidYMid meet">
<metadata>
Created by potrace 1.10, written by Peter Selinger 2001-2011
</metadata>
<g transform="translate(0.000000,300.000000) scale(0.100000,-0.100000)"
fill="#000000" stroke="none">
<path d="M1455 1963 c-49 -97 -56 -162 -26 -219 25 -48 49 -79 55 -73 3 3 6
67 7 143 1 93 4 135 11 128 6 -6 10 -65 9 -143 -2 -132 -2 -133 18 -115 37 34
64 106 58 157 -5 44 -66 181 -85 193 -5 3 -26 -29 -47 -71z m6 -156 c-13 -13
-15 24 -3 63 6 22 7 21 10 -14 2 -21 -1 -43 -7 -49z"/>
<path d="M1193 1778 c3 -7 20 -49 37 -93 35 -90 66 -129 125 -156 73 -34 80
-26 39 39 -20 31 -52 73 -71 92 -33 33 -35 33 -28 10 7 -24 7 -24 -8 -5 -8 11
-13 23 -11 27 3 5 0 8 -5 8 -6 0 -11 5 -11 10 0 21 24 8 81 -46 32 -31 67 -74
76 -95 10 -21 21 -39 25 -39 12 0 -3 114 -19 140 -8 14 -25 32 -37 42 -33 24
-199 81 -193 66z"/>
<path d="M1717 1759 c-43 -16 -91 -38 -107 -49 -35 -25 -62 -94 -58 -146 l3
-39 20 40 c19 40 100 126 136 145 16 9 19 7 19 -10 0 -11 -4 -20 -10 -20 -22
0 -26 -2 -49 -23 -23 -22 -101 -131 -101 -141 0 -22 111 26 142 61 20 21 101
214 90 212 -4 -1 -42 -14 -85 -30z"/>
<path d="M1475 1630 c-9 -15 4 -30 26 -30 12 0 19 7 19 20 0 21 -33 29 -45 10z"/>
<path d="M1470 1485 c0 -84 0 -85 25 -85 25 0 25 1 25 85 0 84 0 85 -25 85
-25 0 -25 -1 -25 -85z"/>
<path d="M1163 1525 c-8 -22 5 -107 23 -150 21 -51 87 -120 139 -144 53 -25
133 -28 175 -6 38 20 68 59 81 109 6 22 18 49 27 60 25 27 78 47 108 40 23 -6
25 -4 22 22 -9 81 -183 5 -203 -88 -18 -82 -61 -115 -136 -105 -93 12 -170 98
-177 197 -4 49 -8 59 -28 69 -20 9 -26 8 -31 -4z"/>
<path d="M1798 1529 c-13 -7 -18 -23 -18 -53 0 -70 -45 -144 -110 -183 -31
-19 -68 -33 -86 -33 -24 0 -34 -5 -39 -21 -10 -31 5 -39 59 -28 133 25 225
134 226 267 0 64 -3 68 -32 51z"/>
<path d="M1256 1482 c-3 -5 -3 -18 0 -29 5 -16 14 -20 46 -20 54 0 90 -29 108
-86 12 -37 20 -47 38 -47 17 0 22 6 22 24 0 63 -58 139 -120 156 -43 12 -87
13 -94 2z"/>
<path d="M1290 1389 c0 -15 65 -79 80 -79 7 0 10 7 6 16 -3 9 -6 20 -6 25 0 9
-59 49 -72 49 -5 0 -8 -5 -8 -11z"/>
<path d="M1657 1384 c-25 -14 -54 -61 -43 -71 10 -10 62 27 79 56 21 35 10 40
-36 15z"/>
<path d="M952 1044 c-12 -8 -22 -26 -22 -38 0 -54 77 -64 95 -12 8 24 6 31
-14 47 -28 23 -31 23 -59 3z m53 -23 c9 -29 -5 -52 -29 -49 -37 5 -34 68 3 68
11 0 22 -8 26 -19z"/>
<path d="M1062 1044 c-41 -29 -23 -84 28 -84 32 0 50 17 50 46 0 20 -32 54
-50 54 -3 0 -16 -7 -28 -16z m53 -15 c4 -5 4 -21 1 -35 -9 -33 -43 -33 -52 0
-7 31 1 46 26 46 10 0 22 -5 25 -11z"/>
<path d="M1150 1043 c0 -7 7 -10 16 -6 14 5 16 0 12 -35 -3 -39 -2 -42 22 -41
14 0 19 3 13 6 -7 2 -13 20 -13 40 0 30 3 34 20 28 11 -3 20 -2 20 3 0 6 -20
12 -45 14 -31 2 -45 -1 -45 -9z"/>
<path d="M1650 1043 c0 -7 7 -10 16 -6 14 5 16 0 12 -35 -3 -33 0 -42 12 -42
12 0 15 9 12 41 -4 38 -3 41 17 34 11 -3 21 -2 21 3 0 6 -20 12 -45 14 -31 2
-45 -1 -45 -9z"/>
<path d="M1975 1042 c-3 -10 1 -11 16 -7 20 7 21 4 17 -34 -3 -32 0 -41 12
-41 12 0 15 9 12 42 -4 35 -2 40 12 35 9 -4 16 -2 16 2 0 15 -79 18 -85 3z"/>
<path d="M835 1005 c0 -34 4 -45 15 -45 12 0 15 9 12 40 -3 32 -1 40 12 40 19
0 22 -26 4 -33 -9 -3 -8 -10 6 -26 11 -11 24 -21 29 -21 6 0 2 9 -9 21 -15 16
-16 22 -5 29 24 14 4 40 -31 40 -32 0 -33 -1 -33 -45z"/>
<path d="M1258 1014 c3 -24 0 -39 -9 -45 -9 -6 0 -9 28 -9 23 0 45 5 48 10 4
7 -2 9 -19 4 -20 -5 -26 -2 -26 11 0 9 5 13 10 10 6 -3 10 1 10 10 0 9 -4 13
-10 10 -5 -3 -10 1 -10 11 0 11 6 15 20 11 11 -3 20 -1 20 4 0 5 -15 9 -33 9
-32 0 -33 -1 -29 -36z"/>
<path d="M1345 1005 c0 -44 1 -45 31 -45 17 0 38 8 47 18 34 38 14 72 -42 72
-36 0 -36 0 -36 -45z m64 21 c9 -11 10 -20 1 -35 -18 -34 -40 -26 -40 14 0 37
18 47 39 21z"/>
<path d="M1496 1042 c6 -4 17 -24 25 -44 7 -21 17 -38 22 -38 5 0 16 18 24 40
9 22 23 40 31 40 10 0 13 -10 10 -40 -3 -31 0 -40 12 -40 11 0 15 11 15 45 l0
45 -38 0 c-22 0 -36 -4 -32 -10 3 -5 1 -20 -6 -32 l-12 -22 -9 23 c-4 12 -6
27 -2 32 3 5 -7 9 -23 9 -15 0 -23 -4 -17 -8z"/>
<path d="M1754 1005 c-19 -42 -20 -45 -3 -45 13 0 16 5 12 16 -4 12 -1 15 13
12 10 -2 18 -10 17 -16 -2 -7 5 -12 16 -12 18 0 18 2 -2 45 -12 25 -23 45 -26
45 -3 0 -15 -20 -27 -45z"/>
<path d="M1845 1005 c0 -44 1 -45 33 -45 24 0 32 4 31 18 0 10 -3 12 -6 5 -2
-7 -12 -13 -20 -13 -12 0 -14 9 -11 40 3 31 0 40 -12 40 -11 0 -15 -11 -15
-45z"/>
<path d="M1938 1020 c2 -17 -1 -37 -8 -45 -10 -13 -9 -15 11 -15 22 0 24 3 21
45 -3 27 -9 45 -16 45 -8 0 -11 -11 -8 -30z"/>
<path d="M2089 1024 c24 -30 27 -50 9 -57 -7 -3 -1 -6 14 -6 21 -1 25 3 21 19
-3 11 2 31 11 45 14 22 15 25 1 25 -8 0 -14 -5 -12 -11 1 -6 -4 -14 -10 -16
-7 -3 -13 2 -13 11 0 10 -8 16 -21 16 l-20 0 20 -26z"/>
</g>
</svg>
