<?xml version="1.0" encoding="UTF-8"?>
<svg version="1.1" xmlns="http://www.w3.org/2000/svg" width="96" height="96">
<path d="M0 0 C31.68 0 63.36 0 96 0 C96 31.68 96 63.36 96 96 C64.32 96 32.64 96 0 96 C0 64.32 0 32.64 0 0 Z " fill="#FBFCEE" transform="translate(0,0)"/>
<path d="M0 0 C6.75 1.625 6.75 1.625 9 5 C9.66 5 10.32 5 11 5 C11.4125 4.360625 11.825 3.72125 12.25 3.0625 C14.59697894 0.29641768 16.48008781 0.31288108 20 0 C19.43457996 1.32031595 18.84693528 2.6311301 18.25 3.9375 C17.92515625 4.66839844 17.6003125 5.39929687 17.265625 6.15234375 C16 8 16 8 13.859375 8.75390625 C12.93898438 8.87572266 12.93898438 8.87572266 12 9 C13.44754255 10.44754255 15.03962913 10.55733561 17 11 C15.68 11.33 14.36 11.66 13 12 C12.67 13.65 12.34 15.3 12 17 C15.53647504 15.32482761 16.7911563 14.50719183 18.3125 10.8125 C18.539375 9.884375 18.76625 8.95625 19 8 C19.66 8 20.32 8 21 8 C20.69585072 11.34564211 20.40138474 13.47857497 18.328125 16.171875 C15.37958507 18.48717146 13.71419376 18.53714194 10 18.5 C8.453125 18.51546875 8.453125 18.51546875 6.875 18.53125 C3.33935306 17.87792393 2.17024778 16.81929384 0 14 C-0.75 10.75 -0.75 10.75 -1 8 C-0.34 8 0.32 8 1 8 C1.33 8.66 1.66 9.32 2 10 C3.65 10 5.3 10 7 10 C5.93314837 8.85535739 5.93314837 8.85535739 4.0625 7.8125 C1.42208781 5.49213777 0.8922605 3.34597688 0 0 Z " fill="#A7B296" transform="translate(38,39)"/>
<path d="M0 0 C0.66 0 1.32 0 2 0 C2.391875 1.134375 2.78375 2.26875 3.1875 3.4375 C4.58610882 7.20339051 4.58610882 7.20339051 7.6875 7.9375 C8.8321875 7.9684375 8.8321875 7.9684375 10 8 C11.32 6.02 12.64 4.04 14 2 C15.32 2.33 16.64 2.66 18 3 C16.68 3.33 15.36 3.66 14 4 C13.67 5.65 13.34 7.3 13 9 C16.53647504 7.32482761 17.7911563 6.50719183 19.3125 2.8125 C19.539375 1.884375 19.76625 0.95625 20 0 C20.66 0 21.32 0 22 0 C21.69585072 3.34564211 21.40138474 5.47857497 19.328125 8.171875 C16.37958507 10.48717146 14.71419376 10.53714194 11 10.5 C9.453125 10.51546875 9.453125 10.51546875 7.875 10.53125 C4.33935306 9.87792393 3.17024778 8.81929384 1 6 C0.25 2.75 0.25 2.75 0 0 Z " fill="#41614B" transform="translate(37,47)"/>
<path d="M0 0 C6.27 0 12.54 0 19 0 C18.67 1.32 18.34 2.64 18 4 C12.06 4 6.12 4 0 4 C0 2.68 0 1.36 0 0 Z " fill="#BEC7B9" transform="translate(27,62)"/>
<path d="M0 0 C6.93 0 13.86 0 21 0 C20.01 1.485 20.01 1.485 19 3 C19 2.34 19 1.68 19 1 C18.34 1 17.68 1 17 1 C16.67 1.66 16.34 2.32 16 3 C14.20095222 4.79904778 11.54936549 4.17296543 9.125 4.1875 C7.52011719 4.20876953 7.52011719 4.20876953 5.8828125 4.23046875 C3 4 3 4 0 2 C0 1.34 0 0.68 0 0 Z " fill="#DCCAAF" transform="translate(48,62)"/>
<path d="M0 0 C0.66 0 1.32 0 2 0 C3.85274014 3.12649899 4.37198336 5.37316225 4 9 C3.01 10.485 3.01 10.485 2 12 C1.01 11.67 0.02 11.34 -1 11 C-2.23076923 4.6 -2.23076923 4.6 -1.0625 1.5625 C-0.711875 1.046875 -0.36125 0.53125 0 0 Z " fill="#526C4D" transform="translate(47,31)"/>
<path d="M0 0 C-3.44615385 6.76923077 -3.44615385 6.76923077 -6.25 7.9375 C-6.8275 7.958125 -7.405 7.97875 -8 8 C-8.3125 5.1875 -8.3125 5.1875 -8 2 C-4.88411016 -0.61061041 -3.93844351 -1.3128145 0 0 Z " fill="#3C5C47" transform="translate(58,40)"/>
<path d="M0 0 C2.31 0.66 4.62 1.32 7 2 C7.33 3.65 7.66 5.3 8 7 C6.68 7.33 5.36 7.66 4 8 C2.3372974 5.32521756 1.00016187 3.0004856 0 0 Z " fill="#446144" transform="translate(38,39)"/>
<path d="M0 0 C0.763125 0.825 1.52625 1.65 2.3125 2.5 C4.75434142 5.34055197 4.75434142 5.34055197 8 5 C7.67 6.32 7.34 7.64 7 9 C5.33333333 9 3.66666667 9 2 9 C1.67 9.66 1.34 10.32 1 11 C0.87625 10.030625 0.7525 9.06125 0.625 8.0625 C0.41875 7.051875 0.2125 6.04125 0 5 C-0.66 4.67 -1.32 4.34 -2 4 C-1.34 4 -0.68 4 0 4 C0 2.68 0 1.36 0 0 Z " fill="#DFE5D7" transform="translate(39,42)"/>
<path d="M0 0 C0.99 0 1.98 0 3 0 C3.33 0.99 3.66 1.98 4 3 C2.37660195 4.70884005 0.70680947 6.37446717 -1 8 C-1.66 8 -2.32 8 -3 8 C-2.25 3.25 -2.25 3.25 0 1 C0 0.67 0 0.34 0 0 Z " fill="#D2D3B2" transform="translate(53,48)"/>
<path d="M0 0 C1.98 0 3.96 0 6 0 C6.33 0.99 6.66 1.98 7 3 C4.69 3.33 2.38 3.66 0 4 C0 2.68 0 1.36 0 0 Z " fill="#B0BCAD" transform="translate(27,62)"/>
<path d="M0 0 C0.66 0 1.32 0 2 0 C2.680625 1.670625 2.680625 1.670625 3.375 3.375 C4.72465986 6.96199008 4.72465986 6.96199008 7 9 C6.01 9.495 6.01 9.495 5 10 C1.32769295 6.92000054 0.43197635 4.7517398 0 0 Z " fill="#4F6C58" transform="translate(37,47)"/>
<path d="M0 0 C1.32 0 2.64 0 4 0 C3.67 2.31 3.34 4.62 3 7 C2.34 7 1.68 7 1 7 C0.67 6.01 0.34 5.02 0 4 C-0.66 3.67 -1.32 3.34 -2 3 C-1.34 2.01 -0.68 1.02 0 0 Z " fill="#82957C" transform="translate(46,44)"/>
<path d="M0 0 C0.66 0.33 1.32 0.66 2 1 C1.42415568 3.38564077 0.77772405 5.66682784 0 8 C-0.66 8 -1.32 8 -2 8 C-2.125 5.125 -2.125 5.125 -2 2 C-1.34 1.34 -0.68 0.68 0 0 Z " fill="#637750" transform="translate(52,40)"/>
</svg>
